<?xml version="1.0" encoding="UTF-8" standalone="no"?>
<!-- Created with Inkscape (http://www.inkscape.org/) -->

<svg
   version="1.1"
   id="svg1"
   width="269.93011"
   height="365.24695"
   viewBox="0 0 269.93011 365.24695"
   xmlns="http://www.w3.org/2000/svg"
   xmlns:svg="http://www.w3.org/2000/svg">
  <defs
     id="defs1" />
  <g
     id="g1"
     transform="translate(-118.4744,-43.510872)">
    <g
       id="g5">
      <g
         id="g6" />
      <path
         id="path6"
         d="M 5.7357146,-43.607602 H 23.610715 c 6.519532,0 11.906251,2.058593 16.156251,6.171875 4.257813,4.117187 6.390625,9.328125 6.390625,15.640625 0,6.312501 -2.140625,11.527345 -6.421875,15.6406261 -4.273438,4.1054689 -9.710938,6.15625022 -16.312501,6.15625022 H 5.7357146 Z m 7.3437504,6.609375 v 30.390626 h 10.71875 c 4.28125,0 7.843751,-1.421875 10.687501,-4.265625 2.84375,-2.84375 4.265625,-6.460938 4.265625,-10.859376 0,-4.40625 -1.464844,-8.050781 -4.390625,-10.9375 -2.929688,-2.882813 -6.554688,-4.328125 -10.875001,-4.328125 z M 61.345092,0.00177432 h -7.34375 V -43.607602 h 7.34375 z M 102.65369,-21.435727 h 6.40625 v 16.0781261 c -2.24219,1.7109376 -4.88672,3.0859376 -7.9375,4.1250002 -3.05469,1.03125001 -6.05469,1.54687503 -9.000003,1.54687503 -6.4375,0 -11.871094,-2.12500013 -16.296876,-6.37500023 -4.417969,-4.2578131 -6.625,-9.5039071 -6.625,-15.7343761 0,-6.226562 2.238281,-11.453125 6.71875,-15.671875 4.488282,-4.21875 10.035157,-6.328126 16.640626,-6.328126 3.070313,0 6.09375,0.554688 9.062503,1.656251 2.96875,1.09375 5.53125,2.578125 7.6875,4.453125 l -4.17188,5.421875 c -3.57422,-3.320313 -7.765623,-4.984375 -12.578123,-4.984375 -4.449219,0 -8.210938,1.496094 -11.281251,4.484375 -3.074218,2.992188 -4.609375,6.648438 -4.609375,10.96875 0,4.355469 1.546875,8.027344 4.640625,11.015626 3.093751,2.9921875 6.863282,4.4843751 11.312501,4.4843751 3.363281,0 6.707031,-0.9921876 10.031253,-2.9843752 z m 61.03125,11.5937509 h -21.98438 l -4.1875,9.84375042 h -7.65625 l 19.25,-43.60937632 h 7.53125 l 19.06251,43.60937632 h -7.84375 z m -2.79688,-6.5468749 -8.23437,-19.375001 -8.21875,19.375001 z m 27.94922,16.39062532 h -7.34375 V -43.607602 h 7.34375 z m 39.1211,0 -7.96875,-13.20312532 c -0.41797,0.04297 -1.08594,0.0625 -2,0.0625 H 207.64588 V 0.00177432 h -7.34375 V -43.607602 h 17.6875 c 5.5625,0 9.87891,1.296875 12.95313,3.890625 3.07031,2.59375 4.60937,6.261719 4.60937,11 0,3.492188 -0.78125,6.4375 -2.34375,8.84375 -1.55469,2.406251 -3.78125,4.171876 -6.6875,5.296876 l 9.78125,14.57812532 z M 207.64588,-19.748227 h 10.34375 c 7.0625,0 10.59375,-2.925781 10.59375,-8.78125 0,-5.644531 -3.53125,-8.46875 -10.59375,-8.46875 h -10.34375 z m 0,0"
         style="fill:#000000;fill-opacity:1;fill-rule:nonzero;stroke:none"
         aria-label="DIG AIR"
         transform="translate(130.19397,408.44354)" />
    </g>
    <g
       id="g22"
       style="stroke:#4d99af;stroke-opacity:1">
      <path
         style="fill:#4d99af;fill-opacity:1;stroke:#4d99af;stroke-width:0.5;stroke-linejoin:round;stroke-dasharray:none;stroke-dashoffset:0;stroke-opacity:1"
         d="M 268.35558,44.808274 387.34264,172.59078 a 2.3562127,2.3562127 111.80948 0 1 -1.58372,3.9577 l -182.70296,10.926 a 1.9077039,1.9077039 55.254525 0 1 -1.85759,-2.67815 L 262.92001,45.719209 a 3.3025353,3.3025353 170.48633 0 1 5.43557,-0.910935 z"
         id="path19" />
      <path
         style="fill:#146d8f;fill-opacity:1;stroke:#146d8f;stroke-width:0.5;stroke-linejoin:round;stroke-dasharray:none;stroke-dashoffset:0;stroke-opacity:1"
         d="M 241.63601,52.706995 179.97636,184.66336 a 3.3786244,3.3786244 156.64842 0 1 -4.11908,1.77836 l -55.90131,-18.43503 a 1.8012022,1.8012022 77.270789 0 1 -0.68052,-3.01258 L 238.83771,50.698604 a 1.7522402,1.7522402 35.667784 0 1 2.7983,2.008391 z"
         id="path20" />
      <path
         style="fill:#85572a;fill-opacity:1;stroke:#85572a;stroke-width:0.5;stroke-linejoin:round;stroke-dasharray:none;stroke-dashoffset:0;stroke-opacity:1"
         d="M 236.16223,311.48558 176.46964,204.66117 a 4.9126515,4.9126515 38.652073 0 0 -2.89324,-2.31395 l -51.16554,-15.15615 a 2.5479225,2.5479225 122.00898 0 0 -2.60271,4.16376 l 112.53636,122.88815 a 2.3706038,2.3706038 144.16081 0 0 3.81772,-2.7574 z"
         id="path21" />
      <path
         style="fill:#a17448;fill-opacity:1;stroke:#a17448;stroke-width:0.5;stroke-linejoin:round;stroke-dasharray:none;stroke-dashoffset:0;stroke-opacity:1"
         d="M 268.315,325.82484 387.66018,197.48163 a 1.8380552,1.8380552 65.010444 0 0 -1.43898,-3.08737 l -183.34144,9.28314 a 2.8625937,2.8625937 119.39882 0 0 -2.37561,4.21621 l 63.19038,117.3387 a 2.8649469,2.8649469 7.3078421 0 0 4.62047,0.59253 z"
         id="path22" />
    </g>
  </g>
</svg>
